+<?xml version="1.0" encoding="utf-8"?>
<!-- Generator: Adobe Illustrator 22.1.0, SVG Export Plug-In . SVG Version: 6.00 Build 0)  -->
<svg version="1.1" id="Layer_1" xmlns="http://www.w3.org/2000/svg" xmlns:xlink="http://www.w3.org/1999/xlink" x="0px" y="0px"
	 viewBox="0 0 1000 1000" style="enable-background:new 0 0 1000 1000;" xml:space="preserve">
<style type="text/css">
	.st0{opacity:0.7;}
	.st1{fill:#29ABE2;}
	.st2{fill:#FFFFFF;}
	.st3{fill:#FFFF00;}
	.st4{fill:#662D91;}
	.st5{fill:none;}
	.st6{font-family:'MyriadPro-Regular';}
	.st7{font-size:12px;}
	.st8{font-size:24px;}
	.st9{font-family:'ComicSansMS';}
</style>
<g class="st0">
	<ellipse class="st1" cx="456" cy="419" rx="179.5" ry="160.5"/>
	<path d="M456,259c47.8,0,92.8,16.7,126.6,46.9C616.4,336.1,635,376.3,635,419s-18.6,82.9-52.4,113.1C548.8,562.3,503.8,579,456,579
		s-92.8-16.7-126.6-46.9C295.6,501.9,277,461.7,277,419s18.6-82.9,52.4-113.1C363.2,275.7,408.2,259,456,259 M456,258
		c-99.4,0-180,72.1-180,161s80.6,161,180,161s180-72.1,180-161S555.4,258,456,258L456,258z"/>
</g>
<g>
	<path class="st2" d="M456,375c0,0-1.8,0-4,0s-4,0-4,0s1.8,0,4,0S456,375,456,375z"/>
	<path d="M456,375c0,0-1.8,0-4,0s-4,0-4,0s1.8,0,4,0S456,375,456,375L456,375z"/>
</g>
<g class="st0">
	<ellipse class="st3" cx="621.5" cy="682" rx="149" ry="181.5"/>
	<path d="M621.5,501c39.6,0,76.9,18.8,104.9,52.9C754.5,588.1,770,633.6,770,682s-15.5,93.9-43.6,128.1
		c-28,34.1-65.3,52.9-104.9,52.9s-76.9-18.8-104.9-52.9C488.5,775.9,473,730.4,473,682s15.5-93.9,43.6-128.1
		C544.6,519.8,581.9,501,621.5,501 M621.5,500C538.9,500,472,581.5,472,682s66.9,182,149.5,182S771,782.5,771,682
		S704.1,500,621.5,500L621.5,500z"/>
</g>
<g class="st0">
	<ellipse class="st4" cx="771" cy="434.5" rx="185.5" ry="153"/>
	<path d="M771,282c49.5,0,95.9,15.9,130.9,44.7c34.9,28.8,54.1,67.1,54.1,107.8s-19.2,79-54.1,107.8c-35,28.8-81.4,44.7-130.9,44.7
		s-95.9-15.9-130.9-44.7c-34.9-28.8-54.1-67.1-54.1-107.8s19.2-79,54.1-107.8C675.1,297.9,721.5,282,771,282 M771,281
		c-102.7,0-186,68.7-186,153.5S668.3,588,771,588s186-68.7,186-153.5S873.7,281,771,281L771,281z"/>
</g>
<g>
	<circle class="st2" cx="659" cy="889" r="3.5"/>
	<path d="M659,886c1.7,0,3,1.3,3,3s-1.3,3-3,3s-3-1.3-3-3S657.3,886,659,886 M659,885c-2.2,0-4,1.8-4,4s1.8,4,4,4s4-1.8,4-4
		S661.2,885,659,885L659,885z"/>
</g>
<rect x="587" y="380.8" class="st5" width="49.2" height="75.4"/>
<text transform="matrix(1 0 0 1 587 397.7939)"><tspan x="0" y="0" class="st6 st7">L</tspan><tspan x="5.7" y="0" class="st6 st8">dwe</tspan><tspan x="0" y="28.8" class="st6 st8">ep</tspan></text>
<rect x="344.4" y="366" class="st5" width="147.5" height="75.4"/>
<text transform="matrix(1 0 0 1 344.377 384.6719)" class="st9 st8">Intelligence</text>
<circle cx="453" cy="432" r="5"/>
<rect x="565.7" y="434.9" class="st5" width="55.7" height="42.6"/>
<text transform="matrix(1 0 0 1 565.6885 453.5244)" class="st9 st8">nerd</text>
<rect x="657.5" y="518.5" class="st5" width="4.9" height="1.6"/>
<rect x="639.5" y="513.5" class="st5" width="89.5" height="70.5"/>
<text transform="matrix(1 0 0 1 639.459 532.2129)" class="st9 st8">Dork</text>
<rect x="703.4" y="343" class="st5" width="172.1" height="131.1"/>
<text transform="matrix(1 0 0 1 703.3936 361.7212)" class="st9 st8">Social inepdute</text>
<rect x="521.4" y="513.5" class="st5" width="78.7" height="55.7"/>
<text transform="matrix(1 0 0 1 521.4258 532.2129)" class="st9 st8">geek</text>
<rect x="531.3" y="646.3" class="st5" width="147.5" height="136.1"/>
<text transform="matrix(1 0 0 1 531.2627 665)" class="st9 st8">obsession</text>
</svg>
